<mxfile host="app.diagrams.net" agent="Mozilla/5.0 (Windows NT 10.0; Win64; x64) AppleWebKit/537.36 (KHTML, like Gecko) Chrome/137.0.0.0 Safari/537.36" version="27.2.0">
  <diagram name="Page-1" id="PILFhnAOW0n-35w8fc6V">
    <mxGraphModel dx="784" dy="467" grid="1" gridSize="10" guides="1" tooltips="1" connect="1" arrows="1" fold="1" page="1" pageScale="1" pageWidth="850" pageHeight="1100" math="0" shadow="0">
      <root>
        <mxCell id="0" />
        <mxCell id="1" parent="0" />
        <mxCell id="oU9i9IO86WiGzP8Q6kBH-20" style="edgeStyle=orthogonalEdgeStyle;rounded=0;orthogonalLoop=1;jettySize=auto;html=1;exitX=0.25;exitY=1;exitDx=0;exitDy=0;entryX=0.5;entryY=0;entryDx=0;entryDy=0;" parent="1" source="oU9i9IO86WiGzP8Q6kBH-1" target="oU9i9IO86WiGzP8Q6kBH-8" edge="1">
          <mxGeometry relative="1" as="geometry">
            <Array as="points">
              <mxPoint x="297" y="460" />
              <mxPoint x="290" y="460" />
            </Array>
          </mxGeometry>
        </mxCell>
        <mxCell id="oU9i9IO86WiGzP8Q6kBH-1" value="" style="rounded=1;whiteSpace=wrap;html=1;fillColor=#dae8fc;strokeColor=#6c8ebf;" parent="1" vertex="1">
          <mxGeometry x="180" y="30" width="470" height="460" as="geometry" />
        </mxCell>
        <mxCell id="oU9i9IO86WiGzP8Q6kBH-2" value="&lt;b&gt;Musical Instrument&lt;/b&gt;" style="text;html=1;align=center;verticalAlign=middle;whiteSpace=wrap;rounded=0;" parent="1" vertex="1">
          <mxGeometry x="180" y="30" width="470" height="30" as="geometry" />
        </mxCell>
        <mxCell id="oU9i9IO86WiGzP8Q6kBH-3" value="" style="rounded=1;whiteSpace=wrap;html=1;fillColor=#f8cecc;strokeColor=#b85450;" parent="1" vertex="1">
          <mxGeometry x="190" y="70" width="330" height="410" as="geometry" />
        </mxCell>
        <mxCell id="9yf9AoGDziISum6mVO2N-1" value="" style="rounded=1;whiteSpace=wrap;html=1;fillColor=#BED4E7;strokeColor=#9673a6;" vertex="1" parent="1">
          <mxGeometry x="200" y="170" width="310" height="300" as="geometry" />
        </mxCell>
        <mxCell id="oU9i9IO86WiGzP8Q6kBH-4" value="&lt;b&gt;Raspberry Pi&lt;/b&gt;" style="text;html=1;align=center;verticalAlign=middle;whiteSpace=wrap;rounded=0;" parent="1" vertex="1">
          <mxGeometry x="190" y="80" width="330" height="20" as="geometry" />
        </mxCell>
        <mxCell id="oU9i9IO86WiGzP8Q6kBH-24" style="edgeStyle=orthogonalEdgeStyle;rounded=0;orthogonalLoop=1;jettySize=auto;html=1;entryX=0.5;entryY=0;entryDx=0;entryDy=0;exitX=0.5;exitY=1;exitDx=0;exitDy=0;" parent="1" source="oU9i9IO86WiGzP8Q6kBH-5" target="oU9i9IO86WiGzP8Q6kBH-12" edge="1">
          <mxGeometry relative="1" as="geometry">
            <Array as="points">
              <mxPoint x="280" y="160" />
              <mxPoint x="280" y="200" />
            </Array>
          </mxGeometry>
        </mxCell>
        <mxCell id="oU9i9IO86WiGzP8Q6kBH-5" value="" style="rounded=1;whiteSpace=wrap;html=1;fillColor=#d5e8d4;strokeColor=#82b366;" parent="1" vertex="1">
          <mxGeometry x="200" y="115" width="300" height="45" as="geometry" />
        </mxCell>
        <mxCell id="oU9i9IO86WiGzP8Q6kBH-6" value="&lt;b&gt;HiFiberry audio interface&lt;/b&gt;" style="text;html=1;align=center;verticalAlign=middle;whiteSpace=wrap;rounded=0;" parent="1" vertex="1">
          <mxGeometry x="200" y="120" width="300" height="30" as="geometry" />
        </mxCell>
        <mxCell id="oU9i9IO86WiGzP8Q6kBH-8" value="PA System" style="rounded=1;whiteSpace=wrap;html=1;fillColor=#e1d5e7;strokeColor=#9673a6;" parent="1" vertex="1">
          <mxGeometry x="180" y="520" width="220" height="80" as="geometry" />
        </mxCell>
        <mxCell id="oU9i9IO86WiGzP8Q6kBH-27" style="edgeStyle=orthogonalEdgeStyle;rounded=0;orthogonalLoop=1;jettySize=auto;html=1;entryX=0.5;entryY=0;entryDx=0;entryDy=0;" parent="1" source="oU9i9IO86WiGzP8Q6kBH-11" target="oU9i9IO86WiGzP8Q6kBH-16" edge="1">
          <mxGeometry relative="1" as="geometry">
            <Array as="points">
              <mxPoint x="280" y="240" />
              <mxPoint x="280" y="240" />
            </Array>
          </mxGeometry>
        </mxCell>
        <mxCell id="oU9i9IO86WiGzP8Q6kBH-11" value="" style="rounded=0;whiteSpace=wrap;html=1;fillColor=#f8cecc;strokeColor=#b85450;opacity=50;" parent="1" vertex="1">
          <mxGeometry x="235" y="210" width="90" height="20" as="geometry" />
        </mxCell>
        <mxCell id="oU9i9IO86WiGzP8Q6kBH-12" value="Audio Segment" style="text;html=1;align=center;verticalAlign=middle;whiteSpace=wrap;rounded=0;fillColor=#fff2cc;strokeColor=#d6b656;" parent="1" vertex="1">
          <mxGeometry x="210" y="210" width="140" height="20" as="geometry" />
        </mxCell>
        <mxCell id="oU9i9IO86WiGzP8Q6kBH-13" value="" style="rounded=0;whiteSpace=wrap;html=1;" parent="1" vertex="1">
          <mxGeometry x="250" y="430" width="210" height="20" as="geometry" />
        </mxCell>
        <mxCell id="9yf9AoGDziISum6mVO2N-17" style="edgeStyle=orthogonalEdgeStyle;rounded=0;orthogonalLoop=1;jettySize=auto;html=1;exitX=0.5;exitY=1;exitDx=0;exitDy=0;entryX=0.5;entryY=0;entryDx=0;entryDy=0;" edge="1" parent="1" source="oU9i9IO86WiGzP8Q6kBH-14" target="oU9i9IO86WiGzP8Q6kBH-18">
          <mxGeometry relative="1" as="geometry">
            <Array as="points">
              <mxPoint x="355" y="500" />
              <mxPoint x="540" y="500" />
            </Array>
          </mxGeometry>
        </mxCell>
        <mxCell id="oU9i9IO86WiGzP8Q6kBH-14" value="OSC messages" style="text;html=1;align=center;verticalAlign=middle;whiteSpace=wrap;rounded=0;fillColor=#fff2cc;strokeColor=#d6b656;opacity=50;" parent="1" vertex="1">
          <mxGeometry x="250" y="430" width="210" height="20" as="geometry" />
        </mxCell>
        <mxCell id="oU9i9IO86WiGzP8Q6kBH-15" value="" style="rounded=0;whiteSpace=wrap;html=1;fillColor=#f8cecc;strokeColor=#b85450;opacity=50;" parent="1" vertex="1">
          <mxGeometry x="235" y="250" width="100" height="20" as="geometry" />
        </mxCell>
        <mxCell id="oU9i9IO86WiGzP8Q6kBH-32" style="edgeStyle=orthogonalEdgeStyle;rounded=0;orthogonalLoop=1;jettySize=auto;html=1;" parent="1" source="oU9i9IO86WiGzP8Q6kBH-16" target="oU9i9IO86WiGzP8Q6kBH-17" edge="1">
          <mxGeometry relative="1" as="geometry" />
        </mxCell>
        <mxCell id="oU9i9IO86WiGzP8Q6kBH-16" value="MFCC" style="text;html=1;align=center;verticalAlign=middle;whiteSpace=wrap;rounded=0;fillColor=#fff2cc;strokeColor=#d6b656;" parent="1" vertex="1">
          <mxGeometry x="210" y="250" width="140" height="20" as="geometry" />
        </mxCell>
        <mxCell id="9yf9AoGDziISum6mVO2N-13" style="edgeStyle=orthogonalEdgeStyle;rounded=0;orthogonalLoop=1;jettySize=auto;html=1;exitX=0.5;exitY=1;exitDx=0;exitDy=0;entryX=0.25;entryY=0;entryDx=0;entryDy=0;" edge="1" parent="1" source="oU9i9IO86WiGzP8Q6kBH-17" target="9yf9AoGDziISum6mVO2N-11">
          <mxGeometry relative="1" as="geometry" />
        </mxCell>
        <mxCell id="oU9i9IO86WiGzP8Q6kBH-17" value="Pattern Detection Algorithm" style="rounded=1;whiteSpace=wrap;html=1;fillColor=#f5f5f5;fontColor=#333333;strokeColor=#666666;" parent="1" vertex="1">
          <mxGeometry x="210" y="290" width="140" height="40" as="geometry" />
        </mxCell>
        <mxCell id="oU9i9IO86WiGzP8Q6kBH-18" value="Peripheral Devices" style="rounded=1;whiteSpace=wrap;html=1;fillColor=#e1d5e7;strokeColor=#9673a6;" parent="1" vertex="1">
          <mxGeometry x="430" y="520" width="220" height="80" as="geometry" />
        </mxCell>
        <mxCell id="oU9i9IO86WiGzP8Q6kBH-31" value="Audio" style="text;html=1;align=center;verticalAlign=middle;whiteSpace=wrap;rounded=0;" parent="1" vertex="1">
          <mxGeometry x="149" y="476" width="60" height="30" as="geometry" />
        </mxCell>
        <mxCell id="9yf9AoGDziISum6mVO2N-9" style="edgeStyle=orthogonalEdgeStyle;rounded=0;orthogonalLoop=1;jettySize=auto;html=1;exitX=0.5;exitY=1;exitDx=0;exitDy=0;" edge="1" parent="1" source="9yf9AoGDziISum6mVO2N-4" target="9yf9AoGDziISum6mVO2N-7">
          <mxGeometry relative="1" as="geometry" />
        </mxCell>
        <mxCell id="9yf9AoGDziISum6mVO2N-4" value="&lt;b&gt;IMU Sensor&lt;/b&gt;" style="rounded=1;whiteSpace=wrap;html=1;fillColor=#f8cecc;strokeColor=#b85450;perimeterSpacing=0;" vertex="1" parent="1">
          <mxGeometry x="530" y="105" width="110" height="115" as="geometry" />
        </mxCell>
        <mxCell id="9yf9AoGDziISum6mVO2N-6" value="&lt;b&gt;VST Plugin&lt;/b&gt;" style="text;html=1;align=center;verticalAlign=middle;whiteSpace=wrap;rounded=0;" vertex="1" parent="1">
          <mxGeometry x="200" y="170" width="310" height="30" as="geometry" />
        </mxCell>
        <mxCell id="9yf9AoGDziISum6mVO2N-14" style="edgeStyle=orthogonalEdgeStyle;rounded=0;orthogonalLoop=1;jettySize=auto;html=1;exitX=0.5;exitY=1;exitDx=0;exitDy=0;entryX=0.75;entryY=0;entryDx=0;entryDy=0;" edge="1" parent="1" source="9yf9AoGDziISum6mVO2N-7" target="9yf9AoGDziISum6mVO2N-11">
          <mxGeometry relative="1" as="geometry" />
        </mxCell>
        <mxCell id="9yf9AoGDziISum6mVO2N-7" value="Gesture Detection Algorithm" style="rounded=1;whiteSpace=wrap;html=1;fillColor=#f5f5f5;fontColor=#333333;strokeColor=#666666;" vertex="1" parent="1">
          <mxGeometry x="360" y="290" width="140" height="40" as="geometry" />
        </mxCell>
        <mxCell id="9yf9AoGDziISum6mVO2N-10" value="" style="endArrow=classic;html=1;rounded=0;entryX=0;entryY=0.5;entryDx=0;entryDy=0;" edge="1" parent="1" target="oU9i9IO86WiGzP8Q6kBH-5">
          <mxGeometry width="50" height="50" relative="1" as="geometry">
            <mxPoint x="290" y="500" as="sourcePoint" />
            <mxPoint x="150" y="280" as="targetPoint" />
            <Array as="points">
              <mxPoint x="160" y="500" />
              <mxPoint x="160" y="138" />
            </Array>
          </mxGeometry>
        </mxCell>
        <mxCell id="9yf9AoGDziISum6mVO2N-16" style="edgeStyle=orthogonalEdgeStyle;rounded=0;orthogonalLoop=1;jettySize=auto;html=1;exitX=0.5;exitY=1;exitDx=0;exitDy=0;entryX=0.5;entryY=0;entryDx=0;entryDy=0;" edge="1" parent="1" source="9yf9AoGDziISum6mVO2N-11" target="oU9i9IO86WiGzP8Q6kBH-14">
          <mxGeometry relative="1" as="geometry" />
        </mxCell>
        <mxCell id="9yf9AoGDziISum6mVO2N-11" value="State Machine" style="rounded=1;whiteSpace=wrap;html=1;fillColor=#f5f5f5;fontColor=#333333;strokeColor=#666666;" vertex="1" parent="1">
          <mxGeometry x="250" y="370" width="210" height="30" as="geometry" />
        </mxCell>
      </root>
    </mxGraphModel>
  </diagram>
</mxfile>
